<svg xmlns="http://www.w3.org/2000/svg" xmlns:xlink="http://www.w3.org/1999/xlink" viewBox="0 0 35 38">
<defs>
<path id="areoPlane" d="M26.9 38h-.2c-.3-.1-.5-.3-.6-.6l-4.8-15.2-4.8 5v7c0 .2-.1.5-.3.6l-2.6 2.8c-.2.2-.5.3-.8.3-.3 0-.5-.2-.7-.5l-3.7-7.8-7.5-3.9c-.3-.1-.4-.4-.5-.7 0-.3 0-.6.2-.8l2.6-2.8c.2-.2.4-.3.6-.3h6.7l4.8-5-14.4-5c-.3-.1-.5-.4-.6-.7-.1-.3 0-.6.2-.9l2.8-2.9c.2-.1.5-.2.7-.2l19 1.8 3-3.1c.5-.5 2.9-2.8 5.2-2.8.9 0 1.7.3 2.3 1 2 2.1.5 5.4-1.8 7.8l-3 3.1 1.7 19.9c0 .3-.1.5-.3.7l-2.8 2.9c.1.2-.2.3-.4.3zM2.8 24.6l6.6 3.5c.2.1.3.2.4.4l3.3 6.9 1.5-1.6v-7c0-.2.1-.5.3-.6l6.1-6.4c.2-.2.5-.3.8-.2.3.1.5.3.6.6l4.8 15.2 1.5-1.5L27 14c0-.3.1-.5.3-.7l3.3-3.5c1.4-1.4 3-4 1.8-5.2-.3-.3-.7-.5-1.1-.5-1.4 0-3.1 1.4-3.9 2.3l-3.3 3.5c-.2.2-.4.3-.7.3l-19-1.8-1.6 1.4 14.6 5.1c.3.1.5.4.6.7.1.3 0 .6-.2.9l-6.1 6.4c-.2.2-.4.3-.6.3H4.3l-1.5 1.4z"></path>
</defs>
<clipPath id="areoPlanePath">
<use xlink:href="#areoPlane" overflow="visible"></use>
</clipPath>
<path clip-path="url(#areoPlanePath)" fill="#000000" d="M-3.5-1.6h41.9v43.4H-3.5z"></path>
</svg>