<?xml version="1.0" encoding="iso-8859-1"?>
<!-- Uploaded to: SVG Repo, www.svgrepo.com, Generator: SVG Repo Mixer Tools -->
<svg version="1.1" id="Layer_1" xmlns="http://www.w3.org/2000/svg" xmlns:xlink="http://www.w3.org/1999/xlink" 
	 viewBox="0 0 511.995 511.995" xml:space="preserve">
<circle style="fill:#00CC96;" cx="255.997" cy="255.997" r="255.997"/>
<path style="fill:#07B587;" d="M307.325,506.909L36.987,235.948l186.286-1.039l-41.143-41.143l74.805,0.832l39.897,39.897h5.298
	l-43.844-43.844l74.805,0.831l42.597,42.597l97.766-0.519l38.026,38.026c-7.065,116.883-92.364,212.572-204.26,235.325h0.105
	V506.909z"/>
<path style="fill:#F8F8F8;" d="M182.649,189.194h48.831c1.039,0,1.87,1.143,1.87,2.389l0,0c0,1.351-0.831,8.831-1.87,8.727
	l-48.831-6.234c-1.039-0.104-1.87-1.143-1.87-2.389l0,0c0-1.351,0.831-2.389,1.87-2.389V189.194z M331.325,189.194h-48.831
	c-1.039,0-1.87,1.143-1.87,2.389l0,0c0,1.351,0.832,8.831,1.87,8.727l48.831-6.234c1.039-0.104,1.87-1.143,1.87-2.389l0,0
	c0-1.351-0.832-2.389-1.87-2.389V189.194z"/>
<rect x="355.429" y="248.933" style="fill:#E6E6E6;" width="6.338" height="8.415"/>
<path style="fill:#FFFFFF;" d="M287.273,230.234l186.286,3.428c0,0,1.87,3.844-0.832,4.156l-190.233,23.377l4.779-30.857V230.234z"
	/>
<path style="fill:#EFEFEF;" d="M297.766,230.442l175.896,3.221c0,0,0.623,1.247,0.623,2.285l-177.247,1.974l0.832-7.585
	L297.766,230.442z"/>
<ellipse style="fill:#E6E6E6;" cx="358.13" cy="273.979" rx="20.779" ry="18.909"/>
<ellipse style="fill:#333333;" cx="358.13" cy="273.979" rx="16.519" ry="15.069"/>
<rect x="149.502" y="248.933" style="fill:#E6E6E6;" width="6.338" height="8.415"/>
<path style="fill:#FFFFFF;" d="M223.896,230.234L37.61,233.662c0,0-1.87,3.844,0.832,4.156l190.234,23.376l-4.779-30.857v-0.103
	H223.896z"/>
<path style="fill:#EFEFEF;" d="M213.506,230.442L37.61,233.663c0,0-0.623,1.247-0.623,2.285l177.247,1.974l-0.832-7.585
	L213.506,230.442z"/>
<ellipse style="fill:#E6E6E6;" cx="153.144" cy="273.979" rx="20.779" ry="18.909"/>
<ellipse style="fill:#333333;" cx="153.144" cy="273.979" rx="16.519" ry="15.069"/>
<path style="fill:#FAFAFA;" d="M257.039,132.676L257.039,132.676c2.078,0,3.636,1.558,3.74,3.428l1.87,49.974
	c0.104,1.87-3.532,3.428-5.61,3.428l0,0c-2.078,0-5.715-1.558-5.61-3.428l1.87-49.974
	C253.403,134.234,254.961,132.676,257.039,132.676z"/>
<path style="fill:#E6E6E6;" d="M257.039,179.117c24,0,43.325,25.663,43.325,49.767s-19.429,49.767-43.325,49.767
	c-24,0-43.325-25.663-43.325-49.767S233.142,179.117,257.039,179.117z"/>
<path style="fill:#FFFFFF;" d="M257.039,179.117c24,0,43.325,25.663,43.325,49.767c0,1.87-0.104,3.844-0.311,5.715
	c-10.078,11.844-25.559,20.364-43.013,20.364s-32.935-8.519-43.013-20.364c-0.208-1.87-0.311-3.844-0.311-5.715
	C213.714,204.779,233.142,179.117,257.039,179.117z"/>
<path style="fill:#F7F7F7;" d="M257.039,179.117c24,0,43.325,25.663,43.325,49.767c0,1.87-0.104,3.844-0.311,5.715
	c-10.078,11.844-25.559,20.364-43.013,20.364V179.117z"/>
<path style="fill:#2BB5FF;" d="M239.376,196.26h36.883l11.013,13.818c-20.155,2.078-40.208,2.181-60.363,0l12.572-13.818H239.376z"
	/>
<path style="fill:#FFFFFF;" d="M255.48,196.26h3.844l1.87,15.376c-2.494,0-4.987,0-7.481,0l1.87-15.481L255.48,196.26z"/>
</svg>