<svg xmlns="http://www.w3.org/2000/svg" xmlns:xlink="http://www.w3.org/1999/xlink" viewBox="0 0 35 38">
<defs>
<path id="reset" d="M32.5 13.5c-1.8-4.1-5.1-7.2-9.3-8.8-4-1.7-8.6-1.5-12.7.3C4.8 7.6 1.1 13.1.7 19.4c-.1.3 0 .6.1.9 0 0 0 .1.1.1v.1c.3.5.8.8 1.4.8.9.1 1.7-.7 1.8-1.6.3-5 3.2-9.4 7.8-11.4 6.6-3.1 14.5-.1 17.5 6.7 3 6.7 0 14.7-6.6 17.7-2.7 1.2-5.8 1.5-8.6.8l.2-.3c.2-.3.2-.8-.1-1.1-.2-.3-.5-.5-.9-.5l-4.7.1c-.4 0-.7.2-.9.6-.2.3-.2.7 0 1l2.5 4.1c.2.3.6.6 1 .5.4 0 .7-.2.9-.5l.4-.7c1.6.5 3.4.8 5 .7 2.3 0 4.5-.5 6.6-1.4 4.1-1.9 7.2-5.2 8.7-9.4 1.7-4.4 1.5-9-.4-13.1"></path>
</defs>
<clipPath id="resetPath">
<use xlink:href="#reset" overflow="visible"></use>
</clipPath>
<path clip-path="url(#resetPath)" fill="#000000" d="M-3.1-.3h40.9v41.8H-3.1z"></path>
</svg>