<svg xmlns="http://www.w3.org/2000/svg" xmlns:xlink="http://www.w3.org/1999/xlink" viewBox="0 0 35 38">
<defs>
<path id="security" d="M30.1 4.3c-.4-.3-1-.3-1.4-.1-6.4 3-9.1-.8-9.2-1-.3-.4-.7-.7-1.2-.7s-1 .3-1.2.7c-.1.2-2.8 4-9.2 1-.5-.2-1-.2-1.5.1-.4.3-.7.7-.7 1.3V20.3c.1.5 2.3 12.3 11.9 16.6.2.1.4.1.6.1.2 0 .4 0 .6-.1 9.6-4.2 11.8-16.1 11.9-16.6V5.6c.1-.6-.1-1-.6-1.3zm-2.2 15.6c-.2 1.1-2.4 10.4-9.6 14-7.2-3.6-9.4-12.9-9.6-14V7.7c4.5 1.4 7.8.1 9.6-1.5 1.8 1.6 5.1 2.9 9.6 1.5v12.2z"></path>
</defs>
<clipPath id="securityPath">
<use xlink:href="#security" overflow="visible"></use>
</clipPath>
<path clip-path="url(#securityPath)" fill="#000000" d="M1.4-1.8h33.7v43.1H1.4z"></path>
</svg>