<svg xmlns="http://www.w3.org/2000/svg" xmlns:xlink="http://www.w3.org/1999/xlink" viewBox="0 0 35 38">
<defs>
<path id="a" d="M.7 4.5h33.2v32.4H.7z"></path>
</defs>
<clipPath id="b">
<use xlink:href="#a" overflow="visible"></use>
</clipPath>
<g clip-path="url(#b)">
<defs>
<path id="c" d="M0 3.8h34.6v33.9H0z"></path>
</defs>
<clipPath id="d">
<use xlink:href="#c" overflow="visible"></use>
</clipPath>
<g clip-path="url(#d)">
<defs>
<path id="e" d="M33.6 20.2l-2.7-1.9c-.4-.3-.5-.9-.3-1.3l1.6-2.9c.2-.4 0-.8-.4-.9l-3.3-.5c-.5-.1-.9-.5-.8-1l.2-3.3c0-.5-.3-.8-.8-.6l-3.2 1c-.5.1-1-.1-1.2-.6l-1.2-3.1c-.2-.5-.6-.6-1-.2L18 7.2c-.4.3-1 .3-1.3 0l-2.5-2.3c-.4-.3-.8-.2-1 .2L11.9 8c-.2.5-.7.7-1.2.6l-3.2-1c-.5-.1-.8.2-.8.7l.2 3.3c0 .5-.3 1-.8 1l-3.3.5c-.5.1-.7.5-.4.9L4 17c.2.4.1 1-.3 1.3L1 20.2c-.4.3-.4.7 0 1l2.7 1.9c.4.3.6.9.3 1.3l-1.6 2.9c-.2.4 0 .8.4.9l3.3.5c.5.1.9.5.8 1L6.7 33c0 .5.3.8.8.6l3.2-1c.5-.1 1 .1 1.2.6l1.2 3.1c.2.5.6.6 1 .2l2.5-2.3c.4-.3 1-.3 1.3 0l2.5 2.3c.4.3.8.2 1-.2l1.2-3.1c.2-.5.7-.7 1.2-.6l3.2 1c.5.1.8-.1.8-.6l-.2-3.3c0-.5.3-1 .8-1l3.3-.5c.5-.1.7-.5.4-.9l-1.6-2.9c-.2-.4-.1-1 .3-1.3l2.7-1.9c.5-.3.5-.8.1-1m-2.5 1L29 22.7c-.4.3-.5.9-.3 1.3l1.3 2.2c.2.4 0 .8-.4.9l-2.5.4c-.5.1-.9.5-.8 1l.2 2.6c0 .5-.3.8-.8.6L23 31c-.5-.1-1 .1-1.2.6l-1 2.4c-.2.5-.6.6-1 .2l-1.9-1.7c-.4-.3-1-.3-1.3 0l-1.9 1.7c-.4.3-.8.2-1-.2l-1-2.4c-.2-.5-.7-.7-1.2-.6l-2.5.7c-.5.1-.8-.1-.8-.6l.2-2.6c0-.5-.3-1-.8-1l-2.5-.4c-.5-.1-.7-.5-.4-.9L5.9 24c.2-.4.1-1-.3-1.3l-2.1-1.5c-.4-.3-.4-.7 0-1l2.1-1.5c.4-.3.5-.9.3-1.3l-1.3-2.2c-.2-.4 0-.8.4-.9l2.5-.4c.5-.1.9-.5.8-1l-.2-2.6c0-.5.3-.8.8-.6l2.5.7c.5.1 1-.1 1.2-.6l1-2.4c.2-.5.6-.6 1-.2l1.9 1.7c.4.3 1 .3 1.3 0l1.9-1.7c.4-.3.8-.2 1 .2l1 2.4c.2.5.7.7 1.2.6l2.5-.7c.5-.1.8.1.8.6l-.2 2.6c0 .5.3 1 .8 1l2.5.4c.5.1.7.5.4.9l-1.3 2.2c-.2.4-.1 1 .3 1.3l2.1 1.5c.7.2.7.7.3 1"></path>
</defs>
<clipPath id="f">
<use xlink:href="#e" overflow="visible"></use>
</clipPath>
<g clip-path="url(#f)">
<defs>
<path id="g" d="M.7 4.5h33.2V37H.7z"></path>
</defs>
<clipPath id="h">
<use xlink:href="#g" overflow="visible"></use>
</clipPath>
<path clip-path="url(#h)" fill="#000000" d="M-2.8 1h40.1v39.3H-2.8z"></path>
</g>
</g>
</g>
</svg>