<svg version="1.1" id="Layer_1" xmlns="http://www.w3.org/2000/svg" xmlns:xlink="http://www.w3.org/1999/xlink" x="0px" y="0px"
	 width="100%" viewBox="0 0 404 104" enable-background="new 0 0 404 104" xml:space="preserve">
<path fill="#FCFCFC" opacity="1.000000" stroke="none" 
	d="
M274.000000,105.000000 
	C182.666672,105.000000 91.833359,105.000000 1.000024,105.000000 
	C1.000016,70.333351 1.000016,35.666698 1.000008,1.000034 
	C135.666641,1.000022 270.333282,1.000022 404.999939,1.000011 
	C404.999939,35.666630 404.999939,70.333260 404.999969,104.999947 
	C361.500000,105.000000 318.000000,105.000000 274.000000,105.000000 
M198.500000,6.000412 
	C134.083450,6.000412 69.666885,6.000412 5.238028,6.000412 
	C5.238028,38.255161 5.238028,69.985168 5.238028,101.749969 
	C137.712860,101.749969 269.929565,101.749969 402.120209,101.749969 
	C402.120209,69.772156 402.120209,38.044701 402.120209,6.000412 
	C334.404785,6.000412 266.952393,6.000412 198.500000,6.000412 
z"/>
<path fill="#030303" opacity="1.000000" stroke="none" 
	d="
M199.000000,6.000412 
	C266.952393,6.000412 334.404785,6.000412 402.120209,6.000412 
	C402.120209,38.044701 402.120209,69.772156 402.120209,101.749969 
	C269.929565,101.749969 137.712860,101.749969 5.238028,101.749969 
	C5.238028,69.985168 5.238028,38.255161 5.238028,6.000412 
	C69.666885,6.000412 134.083450,6.000412 199.000000,6.000412 
M256.500000,98.998856 
	C304.102478,98.998856 351.704987,98.998856 399.482300,98.998856 
	C399.482300,68.809875 399.482300,39.085056 399.482300,9.227558 
	C268.841003,9.227558 138.461533,9.227558 7.966710,9.227558 
	C7.966710,39.178185 7.966710,68.901993 7.966710,98.998856 
	C90.626556,98.998856 173.063278,98.998856 256.500000,98.998856 
z"/>
<path fill="#FDFDFD" opacity="1.000000" stroke="none" 
	d="
M256.000000,98.998856 
	C173.063278,98.998856 90.626556,98.998856 7.966710,98.998856 
	C7.966710,68.901993 7.966710,39.178185 7.966710,9.227558 
	C138.461533,9.227558 268.841003,9.227558 399.482300,9.227558 
	C399.482300,39.085056 399.482300,68.809875 399.482300,98.998856 
	C351.704987,98.998856 304.102478,98.998856 256.000000,98.998856 
M47.500000,92.999321 
	C91.260094,92.999321 135.020187,92.999321 178.712677,92.999321 
	C178.712677,66.689552 178.712677,40.952301 178.712677,15.390154 
	C123.709724,15.390154 68.997482,15.390154 14.389816,15.390154 
	C14.389816,41.384804 14.389816,66.989403 14.389816,92.999321 
	C25.246523,92.999321 35.873260,92.999321 47.500000,92.999321 
M365.070038,47.904919 
	C364.802643,49.208084 364.351379,50.504044 364.300018,51.815674 
	C364.090515,57.161388 365.731323,61.810261 370.588135,64.506210 
	C375.918823,67.465172 381.521851,67.488060 386.640869,63.987537 
	C391.112549,60.929646 392.644531,56.440651 391.895569,51.105003 
	C386.751038,51.105003 381.996521,51.105003 377.298584,51.105003 
	C377.298584,52.919029 377.298584,54.461189 377.298584,55.938034 
	C379.638367,56.076931 381.648560,56.196262 384.242523,56.350246 
	C380.873352,60.244595 377.570770,60.997730 374.193451,58.181229 
	C371.054169,55.563236 370.984894,51.938938 373.153625,48.756718 
	C375.512085,45.296001 378.729767,45.539497 382.410461,47.237831 
	C384.962311,48.415272 388.015869,48.505314 391.668823,49.248844 
	C389.391663,42.156219 384.978943,39.793568 379.596954,39.306602 
	C373.264282,38.733616 368.234741,41.187328 365.070038,47.904919 
M261.113159,62.608994 
	C261.811462,61.687092 262.625549,60.830494 263.188690,59.832333 
	C266.094452,54.681641 265.534119,48.284500 261.873993,44.008305 
	C257.886078,39.349155 250.615311,37.877232 244.518188,40.494732 
	C239.228622,42.765537 236.342529,47.597584 236.637039,53.678551 
	C236.882416,58.744686 239.101028,62.733051 243.707947,64.860710 
	C249.552216,67.559845 255.308960,67.235847 261.113159,62.608994 
M336.537201,59.478317 
	C336.537201,61.570408 336.537201,63.662498 336.537201,65.694580 
	C339.373627,65.694580 341.605133,65.694580 344.272156,65.694580 
	C344.272156,61.543919 344.272156,57.692379 344.272156,53.885296 
	C350.079559,57.341621 350.041718,67.626907 359.752319,65.843826 
	C359.752319,57.141838 359.752319,48.583046 359.752319,40.084560 
	C357.339508,40.084560 355.235687,40.084560 352.506134,40.084560 
	C352.506134,44.058990 352.506134,47.826153 352.506134,51.484383 
	C346.409851,48.463783 346.484314,37.763542 336.537170,40.278038 
	C336.537170,46.523205 336.537170,52.501816 336.537201,59.478317 
M198.565811,46.219963 
	C199.803604,46.657413 201.054199,47.061996 202.276627,47.538864 
	C205.207474,48.682232 208.125061,49.859562 212.024323,51.411850 
	C209.456146,42.193779 203.228897,38.095673 195.879944,39.377819 
	C188.258118,40.707573 183.992096,46.470089 184.710709,54.465179 
	C185.362793,61.719997 190.519165,66.392708 198.050705,66.553925 
	C205.354492,66.710266 210.680756,62.403774 211.566177,54.862171 
	C208.717606,55.587624 206.148926,56.266125 203.567596,56.892471 
	C200.888382,57.542572 197.974045,59.035534 195.591354,58.441071 
	C194.073380,58.062351 192.579926,54.610382 192.424713,52.439938 
	C192.190369,49.162727 194.386368,46.937496 198.565811,46.219963 
M318.006348,61.362530 
	C318.006348,54.265350 318.006348,47.168167 318.006348,40.112999 
	C315.266388,40.112999 313.018250,40.112999 310.402954,40.112999 
	C310.402954,43.120934 310.402954,45.877583 310.402954,48.719582 
	C307.508270,48.719582 304.996033,48.719582 302.096130,48.719582 
	C302.096130,45.596832 302.096130,42.860168 302.096130,40.175583 
	C299.468872,40.175583 297.253326,40.175583 295.080078,40.175583 
	C295.080078,48.889584 295.080078,57.280453 295.080078,65.755211 
	C297.561218,65.755211 299.800079,65.755211 302.500671,65.755211 
	C302.500671,62.438187 302.500671,59.369873 302.500671,56.454681 
	C305.368347,56.454681 307.763763,56.454681 310.488892,56.454681 
	C310.488892,59.753693 310.488892,62.696117 310.488892,65.818214 
	C313.081146,65.818214 315.330231,65.818214 318.006317,65.818214 
	C318.006317,64.564339 318.006317,63.444508 318.006348,61.362530 
M283.024078,61.377213 
	C283.024078,56.613251 283.024078,51.849289 283.024078,46.693153 
	C285.936127,46.693153 288.342590,46.693153 290.732971,46.693153 
	C290.732971,44.226955 290.732971,42.165382 290.732971,40.142342 
	C282.893616,40.142342 275.338837,40.142342 267.966614,40.142342 
	C267.966614,42.487652 267.966614,44.544788 267.966614,46.944481 
	C270.604462,46.944481 272.867645,46.944481 275.490051,46.944481 
	C275.490051,53.364468 275.490051,59.445900 275.490051,67.187294 
	C278.108887,64.155319 283.358643,69.564331 283.024078,61.377213 
M233.317947,65.964905 
	C233.681168,63.742020 234.044388,61.519138 234.485107,58.822044 
	C230.342667,58.822044 227.095184,58.822044 223.506287,58.822044 
	C223.506287,52.357319 223.506287,46.279179 223.506287,40.031013 
	C220.902649,40.031013 218.651932,40.031013 216.259521,40.031013 
	C216.259521,48.717640 216.259521,57.231075 216.259521,66.006844 
	C221.796799,66.006844 227.071793,66.006844 233.317947,65.964905 
M323.544189,48.506332 
	C323.544189,54.233582 323.544189,59.960835 323.544189,65.741760 
	C326.307129,65.741760 328.533966,65.741760 330.712463,65.741760 
	C330.712463,56.980064 330.712463,48.476093 330.712463,40.214966 
	C328.124817,40.214966 325.891754,40.214966 323.544189,40.214966 
	C323.544189,42.877308 323.544189,45.193489 323.544189,48.506332 
z"/>
<path fill="#020202" opacity="1.000000" stroke="none" 
	d="
M47.000000,92.999321 
	C35.873260,92.999321 25.246523,92.999321 14.389816,92.999321 
	C14.389816,66.989403 14.389816,41.384804 14.389816,15.390154 
	C68.997482,15.390154 123.709724,15.390154 178.712677,15.390154 
	C178.712677,40.952301 178.712677,66.689552 178.712677,92.999321 
	C135.020187,92.999321 91.260094,92.999321 47.000000,92.999321 
M76.170074,56.455139 
	C76.170074,59.557251 76.170074,62.659367 76.170074,66.033691 
	C80.064598,66.033691 83.505478,66.604919 86.638634,65.867920 
	C89.584564,65.174957 93.508453,63.732689 94.609932,61.460476 
	C95.752579,59.103355 94.023758,55.354252 93.378151,51.067871 
	C97.556755,46.720486 94.069748,40.916553 89.108177,40.217793 
	C84.956436,39.633083 80.656891,40.097763 76.170082,40.097763 
	C76.170082,45.535355 76.170082,50.503262 76.170074,56.455139 
M104.154243,43.693199 
	C104.154396,50.171455 104.055840,56.652748 104.255249,63.124866 
	C104.287193,64.161530 105.652260,65.157112 106.401039,66.171684 
	C106.903435,65.888733 107.405823,65.605782 107.908218,65.322838 
	C107.908218,62.563950 107.908218,59.805065 107.908218,57.194481 
	C111.871262,55.880184 114.022766,57.360863 116.034393,60.383408 
	C117.643684,62.801437 118.283546,67.171555 123.448067,65.666977 
	C121.421043,62.529305 119.486641,59.535004 117.481255,56.430817 
	C121.626213,54.586998 124.064552,51.548515 123.062141,47.321262 
	C122.488365,44.901608 120.605415,41.523003 118.636215,40.966343 
	C114.461655,39.786270 109.845596,40.096508 105.407478,40.040379 
	C105.001381,40.035244 104.572983,41.792889 104.154243,43.693199 
M151.006668,45.452950 
	C156.961594,41.313396 161.651962,41.842972 166.305878,46.971527 
	C167.185577,47.940926 168.637146,48.391346 170.691483,49.584644 
	C168.145828,41.886124 162.622040,38.417957 156.125748,39.419094 
	C149.046082,40.510136 144.768173,45.588055 144.764542,52.904980 
	C144.761108,59.831062 148.858200,65.055298 155.158859,66.158905 
	C162.602997,67.462799 168.208664,64.211868 170.856049,56.325645 
	C169.106750,57.128197 167.646469,57.381706 166.824173,58.243771 
	C161.901749,63.404247 156.527527,64.553429 152.005432,61.199429 
	C147.488419,57.849194 146.914154,52.173817 151.006668,45.452950 
M54.039719,42.394424 
	C50.893162,50.113064 47.746605,57.831707 44.600048,65.550346 
	C45.137871,65.892212 45.675690,66.234077 46.213512,66.575943 
	C47.740734,64.554108 49.267956,62.532276 51.143101,60.049843 
	C53.152176,60.049843 55.823830,60.265343 58.445370,59.994968 
	C61.678612,59.661503 63.712067,60.519169 64.790344,63.847893 
	C65.147903,64.951721 66.933647,65.592918 68.066429,66.445633 
	C65.674690,57.813107 62.516296,50.160984 59.362473,42.506973 
	C58.131157,39.518696 56.642925,38.116970 54.039719,42.394424 
M36.165329,42.925270 
	C37.151230,42.368832 38.137131,41.812393 39.123032,41.255955 
	C38.907364,40.866383 38.691696,40.476807 38.476028,40.087234 
	C33.740826,40.087234 29.005625,40.087234 23.880274,40.087234 
	C23.880274,48.066143 23.833860,55.831409 23.949490,63.594269 
	C23.961527,64.402443 24.934402,65.196312 25.461472,65.996819 
	C25.996103,65.205635 26.933832,64.442757 26.991756,63.618088 
	C27.185734,60.856339 27.065367,58.072510 27.065367,55.725716 
	C30.709980,53.480339 35.412930,57.248055 38.958679,51.869095 
	C34.250202,51.869095 30.713406,51.869095 27.420309,51.869095 
	C27.420309,48.495033 27.420309,45.761749 27.420309,42.925865 
	C30.262823,42.925865 32.752327,42.925865 36.165329,42.925270 
M135.908890,64.996529 
	C135.908890,56.697643 135.908890,48.398754 135.908890,40.099869 
	C135.465744,39.888279 135.022583,39.676689 134.579437,39.465099 
	C133.912567,40.465939 132.692566,41.453350 132.667877,42.469780 
	C132.498199,49.457630 132.480347,56.454769 132.709122,63.439232 
	C132.736145,64.263977 134.556808,65.029961 135.908890,64.996529 
z"/>
<path fill="#0A0A0A" opacity="1.000000" stroke="none" 
	d="
M365.205719,47.540474 
	C368.234741,41.187328 373.264282,38.733616 379.596954,39.306602 
	C384.978943,39.793568 389.391663,42.156219 391.668823,49.248844 
	C388.015869,48.505314 384.962311,48.415272 382.410461,47.237831 
	C378.729767,45.539497 375.512085,45.296001 373.153625,48.756718 
	C370.984894,51.938938 371.054169,55.563236 374.193451,58.181229 
	C377.570770,60.997730 380.873352,60.244595 384.242523,56.350246 
	C381.648560,56.196262 379.638367,56.076931 377.298584,55.938034 
	C377.298584,54.461189 377.298584,52.919029 377.298584,51.105003 
	C381.996521,51.105003 386.751038,51.105003 391.895569,51.105003 
	C392.644531,56.440651 391.112549,60.929646 386.640869,63.987537 
	C381.521851,67.488060 375.918823,67.465172 370.588135,64.506210 
	C365.731323,61.810261 364.090515,57.161388 364.300018,51.815674 
	C364.351379,50.504044 364.802643,49.208084 365.205719,47.540474 
z"/>
<path fill="#090909" opacity="1.000000" stroke="none" 
	d="
M260.833069,62.855499 
	C255.308960,67.235847 249.552216,67.559845 243.707947,64.860710 
	C239.101028,62.733051 236.882416,58.744686 236.637039,53.678551 
	C236.342529,47.597584 239.228622,42.765537 244.518188,40.494732 
	C250.615311,37.877232 257.886078,39.349155 261.873993,44.008305 
	C265.534119,48.284500 266.094452,54.681641 263.188690,59.832333 
	C262.625549,60.830494 261.811462,61.687092 260.833069,62.855499 
M256.003113,48.806641 
	C253.613434,46.079014 250.410385,45.180134 247.667816,47.286987 
	C245.909943,48.637405 244.545532,51.588165 244.506546,53.847435 
	C244.438339,57.800423 248.243225,60.048534 252.274734,59.209991 
	C256.563019,58.318039 257.859619,55.284584 256.003113,48.806641 
z"/>
<path fill="#020202" opacity="1.000000" stroke="none" 
	d="
M336.537170,58.979370 
	C336.537170,52.501816 336.537170,46.523205 336.537170,40.278038 
	C346.484314,37.763542 346.409851,48.463783 352.506134,51.484383 
	C352.506134,47.826153 352.506134,44.058990 352.506134,40.084560 
	C355.235687,40.084560 357.339508,40.084560 359.752319,40.084560 
	C359.752319,48.583046 359.752319,57.141838 359.752319,65.843826 
	C350.041718,67.626907 350.079559,57.341621 344.272156,53.885296 
	C344.272156,57.692379 344.272156,61.543919 344.272156,65.694580 
	C341.605133,65.694580 339.373627,65.694580 336.537201,65.694580 
	C336.537201,63.662498 336.537201,61.570408 336.537170,58.979370 
z"/>
<path fill="#090909" opacity="1.000000" stroke="none" 
	d="
M198.189133,46.268852 
	C194.386368,46.937496 192.190369,49.162727 192.424713,52.439938 
	C192.579926,54.610382 194.073380,58.062351 195.591354,58.441071 
	C197.974045,59.035534 200.888382,57.542572 203.567596,56.892471 
	C206.148926,56.266125 208.717606,55.587624 211.566177,54.862171 
	C210.680756,62.403774 205.354492,66.710266 198.050705,66.553925 
	C190.519165,66.392708 185.362793,61.719997 184.710709,54.465179 
	C183.992096,46.470089 188.258118,40.707573 195.879944,39.377819 
	C203.228897,38.095673 209.456146,42.193779 212.024323,51.411850 
	C208.125061,49.859562 205.207474,48.682232 202.276627,47.538864 
	C201.054199,47.061996 199.803604,46.657413 198.189133,46.268852 
z"/>
<path fill="#050505" opacity="1.000000" stroke="none" 
	d="
M318.006348,61.843605 
	C318.006317,63.444508 318.006317,64.564339 318.006317,65.818214 
	C315.330231,65.818214 313.081146,65.818214 310.488892,65.818214 
	C310.488892,62.696117 310.488892,59.753693 310.488892,56.454681 
	C307.763763,56.454681 305.368347,56.454681 302.500671,56.454681 
	C302.500671,59.369873 302.500671,62.438187 302.500671,65.755211 
	C299.800079,65.755211 297.561218,65.755211 295.080078,65.755211 
	C295.080078,57.280453 295.080078,48.889584 295.080078,40.175583 
	C297.253326,40.175583 299.468872,40.175583 302.096130,40.175583 
	C302.096130,42.860168 302.096130,45.596832 302.096130,48.719582 
	C304.996033,48.719582 307.508270,48.719582 310.402954,48.719582 
	C310.402954,45.877583 310.402954,43.120934 310.402954,40.112999 
	C313.018250,40.112999 315.266388,40.112999 318.006348,40.112999 
	C318.006348,47.168167 318.006348,54.265350 318.006348,61.843605 
z"/>
<path fill="#030303" opacity="1.000000" stroke="none" 
	d="
M283.024048,61.861877 
	C283.358643,69.564331 278.108887,64.155319 275.490051,67.187294 
	C275.490051,59.445900 275.490051,53.364468 275.490051,46.944481 
	C272.867645,46.944481 270.604462,46.944481 267.966614,46.944481 
	C267.966614,44.544788 267.966614,42.487652 267.966614,40.142342 
	C275.338837,40.142342 282.893616,40.142342 290.732971,40.142342 
	C290.732971,42.165382 290.732971,44.226955 290.732971,46.693153 
	C288.342590,46.693153 285.936127,46.693153 283.024078,46.693153 
	C283.024078,51.849289 283.024078,56.613251 283.024048,61.861877 
z"/>
<path fill="#070707" opacity="1.000000" stroke="none" 
	d="
M232.832367,65.985870 
	C227.071793,66.006844 221.796799,66.006844 216.259521,66.006844 
	C216.259521,57.231075 216.259521,48.717640 216.259521,40.031013 
	C218.651932,40.031013 220.902649,40.031013 223.506287,40.031013 
	C223.506287,46.279179 223.506287,52.357319 223.506287,58.822044 
	C227.095184,58.822044 230.342667,58.822044 234.485107,58.822044 
	C234.044388,61.519138 233.681168,63.742020 232.832367,65.985870 
z"/>
<path fill="#000000" opacity="1.000000" stroke="none" 
	d="
M323.544189,48.008003 
	C323.544189,45.193489 323.544189,42.877308 323.544189,40.214966 
	C325.891754,40.214966 328.124817,40.214966 330.712463,40.214966 
	C330.712463,48.476093 330.712463,56.980064 330.712463,65.741760 
	C328.533966,65.741760 326.307129,65.741760 323.544189,65.741760 
	C323.544189,59.960835 323.544189,54.233582 323.544189,48.008003 
z"/>
<path fill="#E9E9E9" opacity="1.000000" stroke="none" 
	d="
M76.170074,55.963154 
	C76.170082,50.503262 76.170082,45.535355 76.170082,40.097763 
	C80.656891,40.097763 84.956436,39.633083 89.108177,40.217793 
	C94.069748,40.916553 97.556755,46.720486 93.378151,51.067871 
	C94.023758,55.354252 95.752579,59.103355 94.609932,61.460476 
	C93.508453,63.732689 89.584564,65.174957 86.638634,65.867920 
	C83.505478,66.604919 80.064598,66.033691 76.170074,66.033691 
	C76.170074,62.659367 76.170074,59.557251 76.170074,55.963154 
M80.608162,62.878288 
	C83.085678,62.854683 85.732391,63.356213 87.983788,62.630802 
	C89.600845,62.109779 91.727303,59.946491 91.722733,58.521927 
	C91.718163,57.096313 89.573082,54.907051 87.962791,54.438156 
	C85.563103,53.739403 82.809250,54.256931 79.876030,54.256931 
	C79.876030,57.100521 79.876030,59.693474 80.608162,62.878288 
M83.375153,51.040478 
	C84.362206,51.033600 85.349434,51.036594 86.336266,51.017967 
	C89.141312,50.965031 91.687317,49.908989 90.942200,46.820457 
	C90.566460,45.263023 88.126854,43.736671 86.307907,43.123493 
	C84.430275,42.490528 82.173332,42.982807 79.288300,42.982807 
	C81.245674,45.853790 76.744911,50.023632 83.375153,51.040478 
z"/>
<path fill="#E3E3E3" opacity="1.000000" stroke="none" 
	d="
M104.154587,43.212578 
	C104.572983,41.792889 105.001381,40.035244 105.407478,40.040379 
	C109.845596,40.096508 114.461655,39.786270 118.636215,40.966343 
	C120.605415,41.523003 122.488365,44.901608 123.062141,47.321262 
	C124.064552,51.548515 121.626213,54.586998 117.481255,56.430817 
	C119.486641,59.535004 121.421043,62.529305 123.448067,65.666977 
	C118.283546,67.171555 117.643684,62.801437 116.034393,60.383408 
	C114.022766,57.360863 111.871262,55.880184 107.908218,57.194481 
	C107.908218,59.805065 107.908218,62.563950 107.908218,65.322838 
	C107.405823,65.605782 106.903435,65.888733 106.401039,66.171684 
	C105.652260,65.157112 104.287193,64.161530 104.255249,63.124866 
	C104.055840,56.652748 104.154396,50.171455 104.154587,43.212578 
M113.108482,43.017075 
	C111.362732,43.017075 109.616982,43.017075 108.019272,43.017075 
	C108.019272,46.799782 108.019272,49.896732 108.019272,52.947796 
	C116.426865,53.849480 119.495514,52.824844 119.790367,48.854656 
	C120.085434,44.881584 117.683372,43.222404 113.108482,43.017075 
z"/>
<path fill="#ECECEC" opacity="1.000000" stroke="none" 
	d="
M150.738342,45.738998 
	C146.914154,52.173817 147.488419,57.849194 152.005432,61.199429 
	C156.527527,64.553429 161.901749,63.404247 166.824173,58.243771 
	C167.646469,57.381706 169.106750,57.128197 170.856049,56.325645 
	C168.208664,64.211868 162.602997,67.462799 155.158859,66.158905 
	C148.858200,65.055298 144.761108,59.831062 144.764542,52.904980 
	C144.768173,45.588055 149.046082,40.510136 156.125748,39.419094 
	C162.622040,38.417957 168.145828,41.886124 170.691483,49.584644 
	C168.637146,48.391346 167.185577,47.940926 166.305878,46.971527 
	C161.651962,41.842972 156.961594,41.313396 150.738342,45.738998 
z"/>
<path fill="#F0F0F0" opacity="1.000000" stroke="none" 
	d="
M54.179729,42.027481 
	C56.642925,38.116970 58.131157,39.518696 59.362473,42.506973 
	C62.516296,50.160984 65.674690,57.813107 68.066429,66.445633 
	C66.933647,65.592918 65.147903,64.951721 64.790344,63.847893 
	C63.712067,60.519169 61.678612,59.661503 58.445370,59.994968 
	C55.823830,60.265343 53.152176,60.049843 51.143101,60.049843 
	C49.267956,62.532276 47.740734,64.554108 46.213512,66.575943 
	C45.675690,66.234077 45.137871,65.892212 44.600048,65.550346 
	C47.746605,57.831707 50.893162,50.113064 54.179729,42.027481 
M58.650959,49.079021 
	C58.000771,47.793854 57.350578,46.508690 56.524223,44.875305 
	C54.835850,49.062222 53.321037,52.818741 51.689285,56.865253 
	C55.175488,56.865253 58.105850,56.865253 61.569965,56.865253 
	C60.618065,54.320297 59.772282,52.059044 58.650959,49.079021 
z"/>
<path fill="#FAFAFA" opacity="1.000000" stroke="none" 
	d="
M35.703579,42.925568 
	C32.752327,42.925865 30.262823,42.925865 27.420309,42.925865 
	C27.420309,45.761749 27.420309,48.495033 27.420309,51.869095 
	C30.713406,51.869095 34.250202,51.869095 38.958679,51.869095 
	C35.412930,57.248055 30.709980,53.480339 27.065367,55.725716 
	C27.065367,58.072510 27.185734,60.856339 26.991756,63.618088 
	C26.933832,64.442757 25.996103,65.205635 25.461470,65.996819 
	C24.934402,65.196312 23.961527,64.402443 23.949490,63.594269 
	C23.833860,55.831409 23.880274,48.066143 23.880274,40.087234 
	C29.005625,40.087234 33.740826,40.087234 38.476028,40.087234 
	C38.691696,40.476807 38.907364,40.866383 39.123032,41.255955 
	C38.137131,41.812393 37.151230,42.368832 35.703579,42.925568 
z"/>
<path fill="#F3F3F3" opacity="1.000000" stroke="none" 
	d="
M135.727448,65.409859 
	C134.556808,65.029961 132.736145,64.263977 132.709122,63.439232 
	C132.480347,56.454769 132.498199,49.457630 132.667877,42.469780 
	C132.692566,41.453350 133.912567,40.465939 134.579437,39.465099 
	C135.022583,39.676689 135.465744,39.888279 135.908890,40.099869 
	C135.908890,48.398754 135.908890,56.697643 135.727448,65.409859 
z"/>
<path fill="#F5F5F5" opacity="1.000000" stroke="none" 
	d="
M256.215210,49.150795 
	C257.859619,55.284584 256.563019,58.318039 252.274734,59.209991 
	C248.243225,60.048534 244.438339,57.800423 244.506546,53.847435 
	C244.545532,51.588165 245.909943,48.637405 247.667816,47.286987 
	C250.410385,45.180134 253.613434,46.079014 256.215210,49.150795 
z"/>
<path fill="#080808" opacity="1.000000" stroke="none" 
	d="
M80.242096,62.582359 
	C79.876030,59.693474 79.876030,57.100521 79.876030,54.256931 
	C82.809250,54.256931 85.563103,53.739403 87.962791,54.438156 
	C89.573082,54.907051 91.718163,57.096313 91.722733,58.521927 
	C91.727303,59.946491 89.600845,62.109779 87.983788,62.630802 
	C85.732391,63.356213 83.085678,62.854683 80.242096,62.582359 
z"/>
<path fill="#040404" opacity="1.000000" stroke="none" 
	d="
M82.908691,51.040230 
	C76.744911,50.023632 81.245674,45.853790 79.288300,42.982807 
	C82.173332,42.982807 84.430275,42.490528 86.307907,43.123493 
	C88.126854,43.736671 90.566460,45.263023 90.942200,46.820457 
	C91.687317,49.908989 89.141312,50.965031 86.336266,51.017967 
	C85.349434,51.036594 84.362206,51.033600 82.908691,51.040230 
z"/>
<path fill="#050505" opacity="1.000000" stroke="none" 
	d="
M113.547386,43.028206 
	C117.683372,43.222404 120.085434,44.881584 119.790367,48.854656 
	C119.495514,52.824844 116.426865,53.849480 108.019272,52.947796 
	C108.019272,49.896732 108.019272,46.799782 108.019272,43.017075 
	C109.616982,43.017075 111.362732,43.017075 113.547386,43.028206 
z"/>
<path fill="#0E0E0E" opacity="1.000000" stroke="none" 
	d="
M58.788727,49.438408 
	C59.772282,52.059044 60.618065,54.320297 61.569965,56.865253 
	C58.105850,56.865253 55.175488,56.865253 51.689285,56.865253 
	C53.321037,52.818741 54.835850,49.062222 56.524223,44.875305 
	C57.350578,46.508690 58.000771,47.793854 58.788727,49.438408 
z"/>
</svg>