<?xml version="1.0" encoding="iso-8859-1"?>
<!-- Generator: Adobe Illustrator 19.0.0, SVG Export Plug-In . SVG Version: 6.00 Build 0)  -->
<svg version="1.1" id="Layer_1" xmlns="http://www.w3.org/2000/svg" xmlns:xlink="http://www.w3.org/1999/xlink" x="0px" y="0px"
	 viewBox="0 0 512 512" style="enable-background:new 0 0 512 512;" xml:space="preserve">
<polygon style="fill:#D3E8F1;" points="309.168,347.181 181.162,347.181 181.162,470.815 502.977,470.815 431.597,347.181 
	321.404,347.181 "/>
<polygon style="fill:#EBF9FE;" points="181.162,470.815 181.162,347.181 78.263,347.181 6.883,470.815 "/>
<polygon style="fill:#FFEFCA;" points="181.162,347.181 309.168,347.181 309.168,215.409 288.105,215.409 254.578,215.409 
	154.341,215.409 78.263,347.181 "/>
<polygon style="fill:#FEA8D6;" points="309.168,215.409 309.168,347.181 321.404,347.181 431.597,347.181 355.519,215.409 "/>
<polygon style="fill:#6BE8C7;" points="254.578,41.796 154.341,215.409 254.578,215.409 "/>
<polygon style="fill:#9AF7DD;" points="254.578,215.409 288.105,215.409 309.168,215.409 355.519,215.409 254.931,41.184 
	254.578,41.796 "/>
<path d="M262.867,37.213c-1.419-2.457-4.04-3.971-6.877-3.971c-2.838,0-5.458,1.514-6.877,3.971L1.064,466.845
	c-1.419,2.457-1.419,5.485,0,7.942c1.419,2.457,4.04,3.971,6.877,3.971h496.096c0.008,0.001,0.015,0.001,0.021,0
	c4.386,0,7.941-3.555,7.941-7.942c0-1.644-0.5-3.172-1.355-4.439L262.867,37.213z M91.923,341.238l67.456-116.837
	c0.749,0.234,1.545,0.36,2.371,0.36h141.977v116.477H91.923z M263.842,208.878c0.004-0.108,0.016-0.213,0.016-0.322V70.697
	l79.78,138.182L263.842,208.878L263.842,208.878z M247.991,208.878h-79.649l79.633-137.93v137.608
	C247.975,208.664,247.986,208.77,247.991,208.878z M319.61,224.761h30.619c0.826,0,1.622-0.126,2.371-0.36l67.456,116.837H319.61
	V224.761z M82.753,357.121h90.959v105.753H21.696L82.753,357.121z M189.595,462.874V357.121h239.63l61.057,105.753L189.595,462.874
	L189.595,462.874z"/>
<g>
</g>
<g>
</g>
<g>
</g>
<g>
</g>
<g>
</g>
<g>
</g>
<g>
</g>
<g>
</g>
<g>
</g>
<g>
</g>
<g>
</g>
<g>
</g>
<g>
</g>
<g>
</g>
<g>
</g>
</svg>
